<?xml version="1.0" encoding="UTF-8" standalone="no"?>
<svg
   width="640"
   height="480"
   version="1.1"
   id="svg71"
   sodipodi:docname="iec61131-3lib.svg"
   inkscape:version="1.2.2 (b0a8486541, 2022-12-01)"
   inkscape:export-filename="iec61131-3lib.png"
   inkscape:export-xdpi="96"
   inkscape:export-ydpi="96"
   xmlns:inkscape="http://www.inkscape.org/namespaces/inkscape"
   xmlns:sodipodi="http://sodipodi.sourceforge.net/DTD/sodipodi-0.dtd"
   xmlns="http://www.w3.org/2000/svg"
   xmlns:svg="http://www.w3.org/2000/svg"
   xmlns:rdf="http://www.w3.org/1999/02/22-rdf-syntax-ns#"
   xmlns:cc="http://creativecommons.org/ns#"
   xmlns:dc="http://purl.org/dc/elements/1.1/">
  <defs
     id="defs75" />
  <sodipodi:namedview
     id="namedview73"
     pagecolor="#ffffff"
     bordercolor="#000000"
     borderopacity="0.25"
     inkscape:showpageshadow="2"
     inkscape:pageopacity="0.0"
     inkscape:pagecheckerboard="0"
     inkscape:deskcolor="#d1d1d1"
     showgrid="false"
     showguides="true"
     inkscape:zoom="1.6958333"
     inkscape:cx="316.95332"
     inkscape:cy="257.10074"
     inkscape:window-width="1920"
     inkscape:window-height="1023"
     inkscape:window-x="0"
     inkscape:window-y="28"
     inkscape:window-maximized="1"
     inkscape:current-layer="svg71">
    <sodipodi:guide
       position="49.53317,365.60197"
       orientation="0,-1"
       id="guide542"
       inkscape:locked="false" />
    <sodipodi:guide
       position="-71.351351,306.63391"
       orientation="0,-1"
       id="guide546"
       inkscape:locked="false" />
    <sodipodi:guide
       position="260.04914,188.10811"
       orientation="0,-1"
       id="guide595"
       inkscape:locked="false" />
    <sodipodi:guide
       position="527.76413,150.95823"
       orientation="1,0"
       id="guide597"
       inkscape:locked="false" />
    <sodipodi:guide
       position="228.79607,191.64619"
       orientation="1,0"
       id="guide599"
       inkscape:locked="false" />
  </sodipodi:namedview>
  <title
     id="title59">2 Puzzle Pieces Connected</title>
  <g
     id="g652">
    <path
       d="m 453.49354,209.7777 c -0.37567,10.20526 -3.79577,21.65248 -11.12045,27.75915 -18.92591,8.88242 -10.18745,-12.69507 -23.28999,-15.23291 -13.10255,-2.53783 -13.82712,12.69409 -13.82712,12.69409 v 0 52.65866 l -148.82072,-0.67358 c 0,0 -15.23194,-0.72461 -12.6941,-13.82714 2.06201,-10.64581 16.70371,-6.8705 17.35209,-15.23291 0.14967,-1.92978 -0.45374,-4.50848 -2.11917,-8.05708 -6.10666,-7.32469 -17.55388,-10.74475 -27.75915,-11.12044 -3.76733,-0.1387 -7.31041,0.19021 -10.40705,0.83928 -0.13746,0.0167 -0.28212,0.0452 -0.41964,0.0629 -8.80531,1.13733 -17.73752,4.54003 -22.89134,10.72179 -8.88242,18.9259 12.69507,10.18745 15.23292,23.28999 1.84902,9.5464 -5.69257,12.49548 -9.94547,13.4075 H 52.9045 l 0.58968,-61.13622 C 52.6762,221.76713 49.80868,213.68329 39.98178,215.58667 26.87923,218.1245 35.61769,239.68104 16.69179,230.7986 10.51001,225.6448 7.10732,216.71258 5.97,207.90726 5.9522,207.76974 5.9237,207.62505 5.9071,207.48762 5.25805,204.391 4.92914,200.84787 5.06782,197.08057 5.44353,186.87532 8.86359,175.4281 16.18827,169.32142 c 18.92589,-8.88245 10.18744,12.69506 23.28998,15.23291 13.10255,2.53786 13.82713,-12.69409 13.82713,-12.69409 l -0.99052,-52.87065 147.93291,0.41964 c 0,0 15.23193,0.72459 12.69409,13.82712 -2.53783,13.10256 -24.11533,4.36412 -15.23291,23.29 6.10666,7.3247 17.55388,10.74476 27.75915,11.12045 3.76733,0.1387 7.31041,-0.19021 10.40706,-0.83928 0.13745,-0.0166 0.2821,-0.0452 0.41964,-0.0629 8.80529,-1.13733 17.73755,-4.54003 22.89133,-10.72178 1.66544,-3.5486 2.26883,-6.12729 2.11918,-8.05708 -0.64839,-8.3624 -15.2691,-4.58708 -17.33111,-15.23292 -2.36789,-12.22521 10.29944,-13.6039 12.06463,-13.74319 h 148.62752 l 0.58968,62.69326 c 0.995,4.30086 4.02308,11.39017 13.32355,9.58876 13.10254,-2.53783 4.36408,-24.09437 23.28999,-15.21193 6.18177,5.15381 9.58445,14.08602 10.72178,22.89134 0.0178,0.13751 0.0463,0.28221 0.0629,0.41964 0.64904,3.09662 0.97795,6.63973 0.83928,10.40705 z"
       id="path1099"
       stroke-linejoin="round"
       stroke-width="8.39279"
       stroke="#000000"
       fill-rule="evenodd"
       fill="#ffffff"
       style="fill:#00ff00"
       sodipodi:nodetypes="ccsccccsscscccscccscscscscccscsccccscccscsccc" />
    <path
       d="m 516.04977,335.62888 c 10.21216,0 21.64105,-3.86037 27.72584,-11.20324 8.82589,-18.95233 -12.72543,-10.14951 -15.30236,-23.24442 -2.57693,-13.09492 12.65277,-13.86495 12.65277,-13.86495 v 0 l 78.60432,-0.78555 -0.86786,-54.47129 c 0,0 -0.77007,-15.2297 -13.86494,-12.65277 -10.63963,2.09377 -6.82065,16.72413 -15.18108,17.39748 -1.92933,0.15541 -4.50982,-0.44029 -8.06336,-2.09513 -7.34289,-6.08477 -10.7971,-17.52173 -11.20325,-27.72583 -0.14994,-3.76691 0.16839,-7.31095 0.80822,-10.40952 0.0162,-0.1375 0.0443,-0.28225 0.0617,-0.41983 1.11104,-8.80865 4.48708,-17.75098 10.65342,-22.92322 18.8993,-8.93887 10.22528,12.66461 23.33537,15.16333 9.55186,1.82053 12.47841,-5.72982 13.37774,-9.98543 l -0.20622,-60.24811 -81.18505,0.79326 c -4.16608,-0.80555 -12.25843,-3.6489 -10.38439,-13.48147 2.49871,-13.110099 24.08124,-4.43598 15.14235,-23.335279 -5.17223,-6.16642 -14.11456,-9.54243 -22.92323,-10.65343 -0.13759,-0.0174 -0.28235,-0.0455 -0.41983,-0.0617 -3.09854,-0.6398 -6.64263,-0.95814 -10.40951,-0.80821 -10.20408,0.40616 -21.64105,3.86037 -27.72584,11.20324 -8.82592,18.952329 12.7254,10.14947 15.30235,23.244429 2.57695,13.09495 -12.65276,13.86495 -12.65276,13.86495 l -79.40541,0.38359 0.61651,57.12056 c 0,0 0.77005,15.2297 13.86495,12.65277 13.0949,-2.57693 4.29211,-24.12825 23.24442,-15.30235 7.34289,6.08476 10.7971,17.52173 11.20324,27.72583 0.14994,3.7669 -0.16839,7.31095 -0.80821,10.40952 -0.0162,0.1375 -0.0444,0.28224 -0.0617,0.41983 -1.11105,8.80864 -4.48708,17.75102 -10.65342,22.92323 -3.54361,1.67602 -6.1205,2.2871 -8.05072,2.14321 -8.3643,-0.62343 -4.63263,-15.25534 -15.28457,-17.28557 -12.23223,-2.3314 -13.5731,10.34 -13.70712,12.1056 l 0.78687,55.45769 82.74209,-0.20471 c 4.30381,0.98216 11.40212,3.98907 9.62849,13.29487 -2.49873,13.11006 -24.08125,4.43598 -15.14236,23.33529 5.17223,6.16636 14.11456,9.54237 22.92323,10.65342 0.13756,0.0174 0.28235,0.0455 0.41983,0.0617 3.09854,0.6398 2.51188,0.80821 6.28175,0.80821 z"
       stroke-linejoin="round"
       stroke-width="8.39279"
       stroke="#000000"
       fill-rule="evenodd"
       fill="#ffffff"
       id="svg_3"
       style="fill:#ff9955"
       sodipodi:nodetypes="scsccccsscscccscccscscscscccscsccccscccscscss" />
    <text
       xml:space="preserve"
       style="font-size:64px;fill:#00ff00"
       x="64.78624"
       y="223.10565"
       id="text399"><tspan
         sodipodi:role="line"
         id="tspan397"
         x="64.78624"
         y="223.10565"
         style="font-style:normal;font-variant:normal;font-weight:600;font-stretch:normal;font-size:64px;font-family:STIX;-inkscape-font-specification:'STIX Semi-Bold';fill:#000000">IEC 61161-3</tspan></text>
    <text
       xml:space="preserve"
       style="font-size:64px;fill:#00ff00"
       x="460.55695"
       y="222.89369"
       id="text399-4"><tspan
         sodipodi:role="line"
         id="tspan397-4"
         x="460.55695"
         y="222.89369"
         style="font-style:normal;font-variant:normal;font-weight:600;font-stretch:normal;font-size:64px;font-family:STIX;-inkscape-font-specification:'STIX Semi-Bold';fill:#000000">LIB</tspan></text>
  </g>
  <metadata
     id="metadata572">
    <rdf:RDF>
      <cc:Work
         rdf:about="">
        <dc:title>2 Puzzle Pieces Connected</dc:title>
      </cc:Work>
    </rdf:RDF>
  </metadata>
</svg>
